<?xml version="1.0" encoding="utf-8"?>
<!-- Generator: Adobe Illustrator 28.1.0, SVG Export Plug-In . SVG Version: 6.00 Build 0)  -->
<svg version="1.1" id="Livello_1" xmlns="http://www.w3.org/2000/svg" xmlns:xlink="http://www.w3.org/1999/xlink" x="0px" y="0px"
	 viewBox="0 0 708.7 708.7" style="enable-background:new 0 0 708.7 708.7;" xml:space="preserve">
<style type="text/css">
	.st0{fill:#FFFFFF;}
	.st1{fill:#F46137;}
	.st2{fill:#0041DE;}
	.st3{fill:none;}
</style>
<polygon points="494.6,91.2 494.6,496.1 424.5,536.5 424.5,455.5 354.3,415.1 284.2,455.5 284.2,536.6 214.1,496.1 214.1,415.1 
	284.2,374.6 354.3,334.2 424.5,293.6 424.5,212.6 354.3,253.1 284.2,293.6 284.2,293.6 284.1,293.6 214.1,334.1 214.1,253.1 
	284.2,212.7 284.2,212.6 354.3,172.2 424.5,131.6 354.4,91.2 354.3,91.2 284.2,131.6 284.2,131.7 214.2,172.2 214.1,172.2 
	144,212.7 144,536.5 214.1,577 214.2,577 284.2,617.5 284.2,617.5 354.3,658 354.4,658 424.5,617.5 494.6,577.1 564.7,536.6 
	564.7,50.7 "/>
</svg>
