<?xml version="1.0" encoding="utf-8"?>
<!-- Generator: Adobe Illustrator 28.1.0, SVG Export Plug-In . SVG Version: 6.00 Build 0)  -->
<svg version="1.1" id="Livello_1" xmlns="http://www.w3.org/2000/svg" xmlns:xlink="http://www.w3.org/1999/xlink" x="0px" y="0px"
	 viewBox="0 0 850.4 708.7" style="enable-background:new 0 0 850.4 708.7;" xml:space="preserve">
<style type="text/css">
	.st0{fill:#FFFFFF;}
	.st1{fill:#F46137;}
	.st2{fill:#0041DE;}
	.st3{fill:none;}
</style>
<g>
	<rect x="132.1" y="274.8" class="st3" width="586.2" height="159.1"/>
	<path d="M167.5,322.4v26h-27.8v-73.6h91.4l-17.8,21.4h-45.8v6.3h59.1l-16.9,19.9H167.5z"/>
	<path d="M314.4,348.4l-15.2-18.3H263v18.3h-27.6v-38.5h72.4c6.6,0,10.2-2.1,10.2-6.9c0-4.7-3.6-6.7-10.2-6.7h-72.3l18.1-21.4h50.7
		c18.1,0,42.4,4.9,42.4,26.7c0,11-7.1,20.7-19.5,23.4c2.2,1.3,7.5,5.7,18.4,17.4l5.7,6H314.4z"/>
	<path d="M396,348.4l16.8-21.1h17.9c3.8,0,8.4,0,10.9,0.2c-1.2-1.2-3.8-4.6-5.5-6.9l-13.4-17.9l-35.8,45.8h-32.8l51.2-65.6
		c3.8-4.9,9.2-9.3,17.8-9.3c8.4,0,13.8,4.1,17.7,9.3l49.8,65.6H396z"/>
	<path d="M524.2,308.9v39.5h-25.1V289c0-11,7.1-15.5,15.1-15.5c3.4,0,6.6,0.8,11,4.3l45.4,36.6v-39.6h25.1v59.5
		c0,11-7.2,15.5-15.2,15.5c-3.5,0-6.6-0.9-11-4.4L524.2,308.9z"/>
	<path d="M671.8,348.4l-21.4-18.9c-8.1-7.3-11-9.8-12.6-11.8c0.1,3.1,0.5,6.7,0.5,10.2v20.5h-27.8v-73.6h27.8v15.9
		c0,4.7-0.4,9.6-0.6,13.5c2.2-2.2,5.9-5.8,12.8-11.9l20.5-17.6h40l-30.3,22.1c-10.6,7.8-14.2,10.3-17.9,12.5
		c2.9,1.9,7.9,5.4,17.9,13.3l32.9,25.6H671.8z"/>
	<path d="M133,428.4l11.5-13.4h8.5c10.3,0,14.5-1.5,14.5-6.6v-26.8h17.7v25.6c0,14.2-10.7,21.3-32.2,21.3H133z"/>
	<path d="M198.7,429.2c-5.3,0-9.5-2.7-9.5-7.5c0-4.8,4.2-7.6,9.5-7.6c5.3,0,9.4,2.8,9.4,7.6C208.1,426.6,203.9,429.2,198.7,429.2z"
		/>
	<path d="M245.8,428.4v-46.8h17.6V415h38.7l-11.3,13.4H245.8z"/>
	<path d="M327.2,428.4l10.7-13.4h11.4c2.4,0,5.3,0,6.9,0.1c-0.8-0.8-2.4-2.9-3.5-4.4l-8.5-11.4l-22.8,29.1h-20.9l32.6-41.7
		c2.4-3.2,5.9-6,11.3-6c5.3,0,8.8,2.6,11.3,6l31.7,41.7H327.2z"/>
	<path d="M393.1,428.4v-29.1h45.6c1.6,0,3.4-0.3,3.4-2.2c0-1.7-1.8-1.9-3.2-1.9H393l12-13.7h33.3c12.5,0,20.6,4.3,20.6,13
		c0,5.5-3.2,8.5-6.8,9.7c4.5,1.3,7.8,4.8,7.8,10.3c0,7.9-4.6,13.8-21.3,13.8H393.1z M410.7,410.5v4.5h27.9c2.5,0,3.7-0.6,3.7-2.3
		c0-1.5-1.1-2.2-4-2.2H410.7z"/>
</g>
</svg>
